# xmcd
#
# Track frame offsets: 
#        150
#        10883
#        51613
#        62957
#        77916
#        86970
#        102897
#        122773
#        126665
#        142058
#        155231
#        173459
#        182660
#
# Disc length: 2856 seconds
#
# Revision: 0
# Processed by: cddbd v1.5.2PL0 Copyright (c) Steve Scherf et al.
# Submitted via: ExactAudioCopy v0.99pb3
#
DISCID=c20b260d
DTITLE=New Estate - Rock Shop
DYEAR=2006
DGENRE=Jacana
TTITLE0=Hergé
TTITLE1=The Mono Block
TTITLE2=Last Train To Belgrave
TTITLE3=Fool For Fashion
TTITLE4=New Estate Blues
TTITLE5=Precious
TTITLE6=Someone Else's Dream
TTITLE7=Funk Bit
TTITLE8=Evil To Evil
TTITLE9=Palm
TTITLE10=Let It Go
TTITLE11=King Rump
TTITLE12=Wasting Time
EXTD=
EXTT0=
EXTT1=
EXTT2=
EXTT3=
EXTT4=
EXTT5=
EXTT6=
EXTT7=
EXTT8=
EXTT9=
EXTT10=
EXTT11=
EXTT12=
PLAYORDER=
